Coordinates
version=1
nRows=6
nColumns=63
inDegrees=yes

Units are S.I. units (second, meters, Newtons, ...)
If the header above contains a line with 'inDegrees', this indicates whether rotational values are in degrees (yes) or radians (no).

endheader
time	pelvis_tilt	pelvis_list	pelvis_rotation	pelvis_tx	pelvis_ty	pelvis_tz	hip_flexion_r	hip_adduction_r	hip_rotation_r	knee_angle_r	knee_angle_r_beta	ankle_angle_r	subtalar_angle_r	mtp_angle_r	hip_flexion_l	hip_adduction_l	hip_rotation_l	knee_angle_l	knee_angle_l_beta	ankle_angle_l	subtalar_angle_l	mtp_angle_l	L5_S1_Flex_Ext	L5_S1_Lat_Bending	L5_S1_axial_rotation	L4_L5_Flex_Ext	L4_L5_Lat_Bending	L4_L5_axial_rotation	L3_L4_Flex_Ext	L3_L4_Lat_Bending	L3_L4_axial_rotation	L2_L3_Flex_Ext	L2_L3_Lat_Bending	L2_L3_axial_rotation	L1_L2_Flex_Ext	L1_L2_Lat_Bending	L1_L2_axial_rotation	L1_T12_Flex_Ext	L1_T12_Lat_Bending	L1_T12_axial_rotation	Abs_r3	Abs_r2	Abs_r1	Abs_t1	Abs_t2	neck_flexion	neck_bending	neck_rotation	arm_flex_r	arm_add_r	arm_rot_r	elbow_flex_r	pro_sup_r	wrist_flex_r	wrist_dev_r	arm_flex_l	arm_add_l	arm_rot_l	elbow_flex_l	pro_sup_l	wrist_flex_l	wrist_dev_l
      2.39534884	      9.36831624	     -3.80220464	     96.30830064	      0.18615936	      0.87655749	      0.57477853	     -2.08087666	      2.72124037	      8.58998778	      1.90282551	      0.03321057	     17.54579732	    -10.98767484	      0.00000000	      0.61460413	     -7.12867766	      5.17970772	      0.62784071	      0.01095789	     26.51098817	      9.62833356	      0.00000000	     -0.19667141	      0.55125289	     -1.41800701	     -0.36523847	      0.73316635	     -1.50663245	     -0.32311146	      1.34031629	     -1.50663245	     -0.22477575	      1.34031629	     -1.24075614	     -0.18262907	      1.12411490	     -1.15213070	     -0.11237804	      0.85389073	     -1.06350526	     -1.40480420	      6.23588299	     -7.88652960	      0.00000000	      0.00000000	      7.30925313	      5.18710596	     -0.83984031	     -8.15267597	    -14.56455014	    -53.74549286	    114.90304357	     76.75163095	     -1.20532650	      8.90526664	     -8.75572129	    -25.76590398	    -26.95998723	    113.13546866	     39.15752449	      7.44973891	    -19.09006914
      2.41860465	      9.14538503	     -3.81183997	     95.69710831	      0.18695502	      0.87677883	      0.57555132	     -1.87872345	      2.49787047	      8.90285450	      2.27442726	      0.03969624	     17.59959797	    -10.71383687	      0.00000000	      0.52051156	     -6.91183598	      4.78634866	      0.63719203	      0.01112110	     26.37791060	      9.45304244	      0.00000000	     -0.19028720	      0.49392165	     -1.28353902	     -0.35338235	      0.65691579	     -1.36376021	     -0.31262284	      1.20092110	     -1.36376021	     -0.21747924	      1.20092110	     -1.12309664	     -0.17670069	      1.00720503	     -1.04287545	     -0.10873010	      0.76508464	     -0.96265426	     -1.35920242	      5.58734049	     -7.13865896	      0.00000000	      0.00000000	      6.47807863	      6.84101454	     -0.58897073	     -5.19304256	    -14.03651357	    -56.16125904	    108.16324104	     76.38821247	     -2.44161910	     10.04187541	     -8.88506489	    -25.39284648	    -25.81451712	    117.38274751	     39.88503098	      9.06950349	    -18.11833800
      2.44186047	      8.74082088	     -3.80666657	     94.52412123	      0.18828839	      0.87677353	      0.57638180	     -1.55630202	      2.05435014	      9.06445817	      2.95658592	      0.05160216	     18.25926872	     -9.42837652	      0.00000000	      0.26361091	     -6.49511517	      3.58590040	      0.63521004	      0.01108651	     26.24987107	      9.51639896	      0.00000000	     -0.19462784	      0.43035586	     -1.12001410	     -0.36144336	      0.57237330	     -1.19001498	     -0.31975408	      1.04636725	     -1.19001498	     -0.22244016	      1.04636725	     -0.98001234	     -0.18073141	      0.87758168	     -0.91001146	     -0.11121035	      0.66662123	     -0.84001058	     -1.39020719	      4.86827159	     -6.22918242	      0.00000000	      0.00000000	      5.95450541	      8.38149710	      0.37922038	     -2.96854121	    -14.65343612	    -56.66158052	    101.72240226	     66.05153400	     -3.25985754	     12.90953392	     -9.18877723	    -24.77119127	    -27.22499283	    120.11715650	     38.28395953	     12.32835958	    -12.63545058
      2.46511628	      8.74964704	     -3.74649765	     94.08686740	      0.18833872	      0.87633146	      0.57779529	     -1.26747793	      2.04953703	      8.75709148	      3.62337258	      0.06323978	     18.55399347	     -8.75189309	      0.00000000	      0.17354551	     -6.48009273	      3.71523610	      0.66087154	      0.01153438	     26.13820267	      8.74044817	      0.00000000	     -0.20086470	      0.44002237	     -1.02738353	     -0.37302584	      0.58522976	     -1.09159500	     -0.33000062	      1.06987040	     -1.09159500	     -0.22956827	      1.06987040	     -0.89896059	     -0.18652296	      0.89729362	     -0.83474912	     -0.11477409	      0.68159465	     -0.77053765	     -1.43475650	      4.97762108	     -5.71399898	      0.00000000	      0.00000000	      5.76721872	      8.45943339	      0.41730482	     -2.25619322	    -16.27725394	    -55.49889450	     96.78692873	     52.52177455	     -6.53963490	     13.68468223	     -8.99330882	    -24.01549409	    -28.65582954	    120.59766879	     35.52747517	     12.76623716	     -9.72006894
      2.48837209	      8.75339259	     -3.71603935	     93.68348786	      0.18822262	      0.87573201	      0.57929191	     -0.92665521	      2.02721080	      8.39433025	      4.33125326	      0.07559463	     18.77564238	     -8.06885931	      0.00000000	      0.10717417	     -6.43883636	      4.12205400	      0.68716175	      0.01199323	     26.01866048	      7.52076431	      0.00000000	     -0.20070946	      0.47144999	     -0.94257866	     -0.37273754	      0.62702849	     -1.00148983	     -0.32974557	      1.14628351	     -1.00148983	     -0.22939084	      1.14628351	     -0.82475633	     -0.18637880	      0.96138082	     -0.76584516	     -0.11468538	      0.73027604	     -0.70693399	     -1.43364760	      5.33313660	     -5.24233973	      0.00000000	      0.00000000	      5.81770803	      7.81799008	      0.50768735	     -2.62387179	    -17.93912691	    -53.41724968	     93.83451381	     41.78839188	     -9.62340677	     12.88893362	     -8.02550919	    -22.95441703	    -31.17987350	    117.86638953	     34.90444521	     13.62011806	     -8.63918820
      2.51162791	      8.82721576	     -3.70484009	     93.52504353	      0.18770620	      0.87516633	      0.58048474	     -0.62128828	      2.06036392	      7.83754224	      4.97148032	      0.08676870	     18.88622974	     -7.31546328	      0.00000000	      0.07884237	     -6.46944816	      4.83522691	      0.73678432	      0.01285931	     25.95525447	      6.32714286	      0.00000000	     -0.19375714	      0.52691073	     -0.90988211	     -0.35982639	      0.70079127	     -0.96674974	     -0.31832361	      1.28113074	     -0.96674974	     -0.22144504	      1.28113074	     -0.79614685	     -0.17992288	      1.07447636	     -0.73927921	     -0.11071283	      0.81618472	     -0.68241158	     -1.38398790	      5.96051953	     -5.06049133	      0.00000000	      0.00000000	      5.93415798	      6.02052945	     -0.02084271	     -3.54387123	    -19.12086906	    -51.28847052	     92.56981480	     35.74415763	    -10.75394902	     11.59522911	     -5.91539410	    -21.75958286	    -33.91927127	    112.16887775	     35.00896673	     15.23349137	     -9.69212963
